<?xml version="1.0" standalone="no"?>
<!DOCTYPE svg PUBLIC "-//W3C//DTD SVG 20010904//EN"
 "http://www.w3.org/TR/2001/REC-SVG-20010904/DTD/svg10.dtd">
<svg version="1.0" xmlns="http://www.w3.org/2000/svg"
 width="1280.000000pt" height="795.000000pt" viewBox="0 0 1280.000000 795.000000"
 preserveAspectRatio="xMidYMid meet">

<g transform="translate(0.000000,795.000000) scale(0.100000,-0.100000)"
fill="#000000" stroke="none">
<path d="M0 3975 l0 -3975 6400 0 6400 0 0 3975 0 3975 -6400 0 -6400 0 0
-3975z m6710 327 c39 -19 47 -39 28 -65 -12 -17 -15 -17 -46 -1 -18 8 -53 16
-78 17 -38 0 -51 -5 -77 -32 -30 -29 -32 -37 -35 -111 l-4 -79 108 -3 109 -3
0 -30 0 -30 -107 -3 -108 -3 0 -304 0 -305 -40 0 -40 0 0 305 0 304 -57 3
c-57 3 -58 3 -61 36 l-3 32 60 0 61 0 0 50 c0 93 19 151 62 192 22 20 49 39
61 41 56 11 134 6 167 -11z m-2489 -74 c66 -30 126 -86 154 -143 28 -57 28
-213 0 -270 -64 -130 -182 -175 -459 -175 l-136 0 0 -145 0 -145 -40 0 -40 0
0 179 0 179 213 4 c229 6 268 13 335 65 48 36 72 94 72 176 0 103 -34 158
-130 208 -42 23 -58 24 -265 29 -202 5 -220 6 -223 23 -10 49 -8 49 236 45
220 -3 229 -4 283 -30z m4135 10 c6 -20 46 -108 154 -343 69 -147 107 -230
172 -375 39 -85 72 -158 75 -162 2 -5 -15 -8 -39 -8 l-43 0 -39 88 c-22 48
-57 124 -78 170 -21 45 -38 84 -38 86 0 5 -58 131 -125 271 -29 61 -56 121
-60 135 -4 14 -14 34 -21 44 -12 18 -15 15 -40 -40 -14 -32 -50 -111 -79 -174
-47 -104 -97 -213 -174 -385 -15 -33 -41 -90 -57 -127 l-29 -67 -42 -1 c-24 0
-43 3 -43 7 0 4 18 43 39 88 22 44 54 112 71 150 90 198 162 355 258 558 l51
107 40 0 c32 0 41 -4 47 -22z m814 -433 l0 -455 -39 0 -40 0 1 455 1 455 38 0
39 0 0 -455z m-4073 222 c112 -24 205 -110 239 -222 23 -79 20 -93 -23 -100
-21 -4 -126 -24 -233 -45 -107 -22 -216 -42 -242 -46 -40 -5 -48 -10 -48 -28
1 -31 49 -96 95 -128 102 -69 277 -59 349 21 24 27 41 27 60 -1 15 -21 14 -24
-16 -55 -42 -43 -82 -61 -167 -73 -180 -25 -316 41 -383 187 -23 53 -28 76
-28 145 0 189 95 314 263 347 59 12 65 12 134 -2z m953 -27 c0 -38 -1 -40 -32
-40 -57 0 -105 -19 -144 -58 -69 -69 -74 -90 -74 -334 l0 -218 -40 0 -40 0 0
341 0 340 38 -3 37 -3 -2 -52 c-1 -29 2 -53 6 -53 4 0 19 14 32 32 26 34 85
64 152 77 68 14 67 14 67 -29z m1285 29 c156 -29 263 -145 280 -304 8 -74 -3
-124 -49 -223 -15 -33 -95 -109 -134 -128 -47 -22 -149 -36 -207 -29 -117 16
-205 79 -262 187 -24 47 -27 64 -28 153 0 83 4 108 23 149 49 107 119 164 237
192 65 16 70 16 140 3z m-1327 -1071 c-3 -127 -5 -143 -20 -146 -17 -3 -18 9
-18 142 0 140 1 146 20 146 20 0 20 -5 18 -142z m954 76 l3 -66 39 31 c38 30
66 40 66 22 0 -5 -20 -27 -44 -49 l-44 -40 54 -53 c29 -29 51 -56 48 -61 -11
-17 -36 -7 -79 33 l-44 40 -3 -38 c-2 -26 -8 -38 -18 -38 -13 0 -15 24 -18
143 -2 136 -2 142 17 142 18 0 20 -8 23 -66z m-1961 39 c34 -20 49 -59 49
-127 0 -91 -32 -122 -132 -131 -89 -8 -86 -13 -87 140 l-2 135 72 0 c49 0 80
-5 100 -17z m157 0 c-2 -10 -12 -18 -23 -18 -11 0 -21 8 -23 18 -3 13 3 17 23
17 20 0 26 -4 23 -17z m350 0 c-5 -26 -38 -29 -38 -4 0 15 6 21 21 21 14 0 19
-5 17 -17z m122 -18 c0 -17 7 -25 22 -27 34 -5 36 -38 3 -38 -26 0 -26 -1 -23
-67 3 -62 5 -68 26 -71 30 -5 25 -36 -6 -40 -45 -7 -62 23 -62 105 0 66 -2 73
-20 73 -27 0 -26 30 1 37 15 4 20 12 16 29 -2 13 1 25 7 27 20 7 36 -5 36 -28z
m618 18 c7 -10 26 -40 42 -66 l30 -48 43 63 c28 42 50 64 65 66 l23 3 -3 -138
c-3 -115 -6 -138 -18 -138 -12 0 -16 20 -20 103 l-5 103 -35 -52 c-20 -29 -41
-54 -47 -56 -6 -2 -30 22 -52 53 l-41 57 0 -106 c0 -59 -2 -107 -4 -107 -2 0
-11 3 -20 6 -14 5 -16 27 -16 140 0 133 0 134 23 134 12 0 28 -8 35 -17z
m1152 -18 c0 -18 6 -24 28 -27 16 -2 27 -9 27 -18 0 -9 -11 -16 -27 -18 -27
-3 -28 -5 -28 -61 0 -59 13 -85 41 -79 8 2 14 -5 14 -17 0 -25 -42 -32 -70
-11 -16 11 -20 29 -23 90 -3 56 -8 76 -18 76 -8 0 -14 9 -14 20 0 11 7 20 15
20 9 0 15 9 15 24 0 23 17 38 33 29 4 -2 7 -15 7 -28z m158 18 c-2 -10 -13
-19 -26 -21 -17 -3 -22 2 -22 17 0 16 6 21 26 21 19 0 25 -5 22 -17z m-2403
-153 c0 -87 -3 -105 -15 -105 -12 0 -16 20 -18 108 -2 100 -1 108 15 105 16
-3 18 -15 18 -108z m220 88 c27 -21 27 -21 23 -129 -4 -130 -11 -140 -98 -136
-44 2 -55 6 -58 21 -3 16 1 17 38 11 32 -5 45 -3 61 11 29 26 23 32 -25 27
-38 -5 -48 -2 -70 20 -21 22 -26 35 -26 79 0 33 6 62 16 76 31 45 96 54 139
20z m133 -82 c2 -71 -1 -102 -10 -107 -23 -15 -28 3 -28 107 0 95 2 105 18
102 15 -3 17 -17 20 -102z m370 88 c20 -13 22 -24 22 -94 0 -70 -2 -81 -22
-94 -25 -18 -84 -21 -122 -6 -23 8 -26 15 -26 54 0 56 32 81 91 73 28 -4 39
-1 39 8 0 26 -29 38 -75 32 -36 -5 -45 -4 -45 9 0 32 99 46 138 18z m786 -5
c24 -19 26 -26 26 -94 0 -65 -3 -76 -22 -89 -33 -23 -113 -21 -138 4 -29 29
-26 74 8 100 22 18 35 21 70 16 31 -4 42 -2 42 8 0 27 -29 39 -75 33 -35 -5
-45 -4 -45 8 0 38 91 47 134 14z m206 1 c0 -16 -7 -20 -35 -20 l-35 0 0 -79
c0 -57 -4 -82 -15 -91 -27 -22 -35 0 -35 95 l0 95 28 6 c15 3 32 7 37 9 31 10
55 4 55 -15z m387 5 c22 -16 47 -81 37 -97 -3 -4 -36 -8 -75 -8 -38 0 -69 -3
-69 -8 0 -4 7 -18 16 -31 15 -21 22 -23 65 -18 36 4 49 2 53 -8 7 -20 -25 -35
-77 -35 -54 0 -86 30 -94 89 -13 98 72 166 144 116z m288 -96 c0 -86 -3 -104
-15 -104 -12 0 -16 18 -18 94 -3 102 1 125 21 118 8 -2 12 -33 12 -108z m209
100 c35 -16 47 -55 44 -135 -2 -56 -6 -69 -20 -72 -16 -3 -18 5 -18 68 0 93
-9 110 -60 110 l-39 0 -3 -87 c-2 -70 -6 -88 -18 -88 -12 0 -16 19 -18 97 l-3
97 33 10 c46 13 73 13 102 0z m261 -10 c26 -22 27 -23 23 -126 -3 -97 -5 -106
-27 -124 -33 -27 -124 -24 -129 5 -4 16 0 18 33 12 26 -5 44 -3 61 9 36 24 29
33 -21 27 -38 -4 -50 -1 -70 18 -28 27 -40 75 -31 125 13 67 105 97 161 54z"/>
<path d="M4965 3961 c-87 -22 -167 -100 -184 -180 -6 -29 -11 -68 -11 -87 0
-40 -15 -40 185 2 66 14 161 32 210 41 50 9 94 20 99 24 15 13 -21 91 -59 131
-19 20 -50 43 -68 51 -40 18 -132 28 -172 18z"/>
<path d="M7200 3956 c-64 -18 -84 -30 -124 -77 -92 -108 -87 -301 11 -394 55
-52 101 -69 188 -69 114 0 181 40 231 137 36 70 39 188 7 259 -52 115 -192
179 -313 144z"/>
<path d="M4872 2953 l3 -98 50 2 c65 2 85 25 85 99 0 72 -21 94 -90 94 l-51 0
3 -97z"/>
<path d="M5273 2971 c-7 -12 -13 -36 -13 -54 0 -54 34 -82 78 -66 21 8 23 14
20 71 l-3 63 -35 3 c-26 2 -38 -2 -47 -17z"/>
<path d="M5777 2904 c-27 -28 15 -71 60 -60 19 5 24 12 21 34 -3 23 -8 27 -38
30 -20 2 -39 0 -43 -4z"/>
<path d="M6561 2897 c-16 -20 -4 -44 25 -51 34 -9 66 10 62 37 -2 17 -11 23
-39 25 -22 2 -40 -2 -48 -11z"/>
<path d="M7160 2970 c-10 -19 -8 -20 40 -20 51 0 60 6 38 28 -19 19 -66 15
-78 -8z"/>
<path d="M7910 2975 c-16 -20 -17 -90 0 -110 13 -16 57 -20 78 -6 9 5 12 26
10 67 l-3 59 -36 3 c-23 2 -40 -2 -49 -13z"/>
</g>
</svg>
